<svg viewBox="0 0 24 24" fill="none" xmlns="http://www.w3.org/2000/svg">
<path d="M12 10C14.2091 10 16 8.20914 16 6C16 3.79086 14.2091 2 12 2C9.79086 2 8 3.79086 8 6C8 8.20914 9.79086 10 12 10Z" fill="#0260EB"/>
<path d="M10.5 5.99961C11.1628 5.99961 11.7 5.46235 11.7 4.79961C11.7 4.13687 11.1628 3.59961 10.5 3.59961C9.83731 3.59961 9.30005 4.13687 9.30005 4.79961C9.30005 5.46235 9.83731 5.99961 10.5 5.99961Z" fill="white" fill-opacity="0.85"/>
<path d="M12.75 9.75C12.75 9.33579 12.4142 9 12 9C11.5858 9 11.25 9.33579 11.25 9.75V21.7496C11.25 22.1639 11.5858 22.4996 12 22.4996C12.4142 22.4996 12.75 22.1639 12.75 21.7496V9.75Z" fill="#0260EB"/>
</svg>
